<?xml version="1.0" encoding="utf-8"?>
<!-- Generator: Adobe Illustrator 19.0.0, SVG Export Plug-In . SVG Version: 6.00 Build 0)  -->
<svg version="1.1" xmlns="http://www.w3.org/2000/svg" xmlns:xlink="http://www.w3.org/1999/xlink" x="0px" y="0px"
	 width="716.219px" height="328.845px" viewBox="0 0 716.219 328.845" enable-background="new 0 0 716.219 328.845"
	 xml:space="preserve">
<g id="1">
	<g>
		<path fill="#47C8F5" stroke="#FFFFFF" stroke-miterlimit="10" d="M48.766,320.047c0,0-0.265,8.298,7.519,8.298
			c9.777,0,90.445-0.12,90.445-0.12l0.133-76.548c0,0-1.245-12.601,10.623-12.601h37.479c14.076,0,13.163,12.601,13.163,12.601
			l-0.133,76.342h88.502c9.992,0,9.544-10.321,9.544-10.321V176.534L181.221,61.942L48.766,176.534V320.047z M48.766,320.047"/>
		<path fill="#47C8F5" d="M0,165.887c0,0,11.22,21.43,35.786,0L182.316,37.838l137.467,127.244c28.4,21.156,39.022,0,39.022,0
			L182.316,0L0,165.887z M0,165.887"/>
		<path fill="#47C8F5" stroke="#FFFFFF" stroke-miterlimit="10" d="M316.398,37.494h-35.322l0.117,44.283l35.205,30.859V37.494z
			 M316.398,37.494"/>
	</g>
</g>
<g id="yo">
	<g>
		<path fill="#010101" d="M363.302,77.653V3.178h9.855v74.475H363.302z M389.363,77.653V23.702h8.23v7.671
			c3.962-5.927,9.686-8.89,17.171-8.89c3.251,0,6.237,0.587,8.958,1.761c2.732,1.163,4.775,2.692,6.13,4.589
			c1.355,1.897,2.303,4.149,2.845,6.757c0.339,1.693,0.508,4.657,0.508,8.89v33.173h-9.144V44.835c0-3.725-0.356-6.508-1.067-8.348
			c-0.711-1.851-1.976-3.325-3.793-4.42c-1.806-1.106-3.929-1.66-6.367-1.66c-3.895,0-7.259,1.236-10.092,3.708
			c-2.822,2.472-4.233,7.163-4.233,14.072v29.465H389.363z M443.568,61.549l9.043-1.422c0.508,3.624,1.919,6.401,4.233,8.331
			c2.326,1.93,5.571,2.896,9.737,2.896c4.2,0,7.315-0.852,9.347-2.557c2.032-1.716,3.048-3.725,3.048-6.028
			c0-2.066-0.897-3.692-2.692-4.877c-1.253-0.813-4.369-1.846-9.347-3.099c-6.706-1.693-11.357-3.155-13.953-4.386
			c-2.585-1.242-4.55-2.952-5.893-5.131c-1.332-2.19-1.998-4.606-1.998-7.248c0-2.405,0.548-4.629,1.643-6.672
			c1.106-2.055,2.608-3.759,4.504-5.114c1.422-1.05,3.359-1.936,5.808-2.659c2.461-0.734,5.097-1.101,7.908-1.101
			c4.233,0,7.948,0.61,11.142,1.829c3.206,1.219,5.571,2.873,7.095,4.962c1.524,2.077,2.574,4.86,3.15,8.348l-8.941,1.219
			c-0.406-2.777-1.586-4.945-3.539-6.503c-1.942-1.558-4.691-2.337-8.247-2.337c-4.2,0-7.197,0.694-8.992,2.083
			c-1.795,1.389-2.692,3.014-2.692,4.877c0,1.185,0.373,2.252,1.118,3.2c0.745,0.982,1.914,1.795,3.505,2.438
			c0.914,0.339,3.607,1.118,8.077,2.337c6.469,1.727,10.979,3.144,13.53,4.25c2.563,1.095,4.572,2.692,6.028,4.792
			c1.456,2.1,2.184,4.708,2.184,7.823c0,3.048-0.892,5.921-2.676,8.619c-1.772,2.687-4.335,4.77-7.688,6.249
			c-3.353,1.468-7.146,2.201-11.379,2.201c-7.011,0-12.356-1.456-16.036-4.369C446.927,71.591,444.584,67.273,443.568,61.549z
			 M499.246,98.329V23.702h8.331v7.011c1.964-2.743,4.183-4.798,6.655-6.164c2.472-1.377,5.47-2.066,8.992-2.066
			c4.606,0,8.67,1.185,12.192,3.556s6.181,5.718,7.976,10.042c1.795,4.312,2.692,9.043,2.692,14.19c0,5.52-0.993,10.493-2.98,14.919
			c-1.976,4.414-4.854,7.801-8.636,10.16c-3.771,2.348-7.739,3.522-11.904,3.522c-3.048,0-5.786-0.643-8.213-1.93
			c-2.416-1.287-4.403-2.913-5.961-4.877v26.264H499.246z M507.527,50.982c0,6.943,1.406,12.074,4.217,15.393
			c2.811,3.319,6.215,4.979,10.211,4.979c4.064,0,7.541-1.716,10.431-5.148c2.901-3.443,4.352-8.772,4.352-15.985
			c0-6.875-1.417-12.023-4.25-15.444c-2.822-3.421-6.198-5.131-10.126-5.131c-3.895,0-7.344,1.823-10.346,5.47
			C509.023,38.751,507.527,44.04,507.527,50.982z M557.16,13.694V3.178h9.144v10.516H557.16z M557.16,77.653V23.702h9.144v53.951
			H557.16z M580.122,77.653V23.702h8.23v8.179c2.1-3.827,4.036-6.35,5.808-7.569c1.784-1.219,3.742-1.829,5.876-1.829
			c3.082,0,6.215,0.982,9.398,2.946l-3.15,8.484c-2.235-1.321-4.471-1.981-6.706-1.981c-1.998,0-3.793,0.604-5.385,1.812
			c-1.592,1.197-2.726,2.862-3.404,4.995c-1.016,3.251-1.524,6.807-1.524,10.668v28.245H580.122z M651.803,60.279l9.449,1.168
			c-1.49,5.52-4.25,9.805-8.281,12.853c-4.03,3.048-9.178,4.572-15.444,4.572c-7.891,0-14.151-2.427-18.779-7.282
			c-4.617-4.866-6.926-11.684-6.926-20.456c0-9.076,2.337-16.121,7.011-21.133s10.736-7.519,18.187-7.519
			c7.214,0,13.107,2.455,17.679,7.366c4.572,4.911,6.858,11.82,6.858,20.727c0,0.542-0.017,1.355-0.051,2.438h-40.235
			c0.339,5.927,2.015,10.465,5.029,13.615c3.014,3.15,6.773,4.725,11.278,4.725c3.353,0,6.215-0.881,8.585-2.642
			S650.414,64.14,651.803,60.279z M621.779,45.496h30.125c-0.406-4.538-1.558-7.942-3.454-10.211
			c-2.913-3.522-6.689-5.283-11.329-5.283c-4.2,0-7.733,1.406-10.601,4.217C623.664,37.029,622.084,40.788,621.779,45.496z
			 M707.735,77.653v-6.807c-3.421,5.351-8.45,8.027-15.088,8.027c-4.301,0-8.258-1.185-11.871-3.556
			c-3.601-2.371-6.395-5.678-8.382-9.923c-1.976-4.256-2.963-9.144-2.963-14.665c0-5.385,0.897-10.268,2.692-14.648
			c1.795-4.391,4.487-7.756,8.077-10.093s7.603-3.505,12.04-3.505c3.251,0,6.147,0.689,8.687,2.066
			c2.54,1.366,4.606,3.15,6.198,5.351V3.178h9.093v74.475H707.735z M678.829,50.728c0,6.909,1.456,12.074,4.369,15.494
			c2.913,3.421,6.35,5.131,10.313,5.131c3.996,0,7.389-1.631,10.177-4.894c2.8-3.274,4.2-8.264,4.2-14.969
			c0-7.383-1.422-12.802-4.267-16.256s-6.35-5.182-10.516-5.182c-4.064,0-7.462,1.66-10.194,4.979
			C680.189,38.35,678.829,43.582,678.829,50.728z"/>
		<path fill="#010101" d="M363.302,202.285v-74.475h9.855v74.475H363.302z M389.363,202.285v-53.951h8.23v7.671
			c3.962-5.927,9.686-8.89,17.171-8.89c3.251,0,6.237,0.587,8.958,1.761c2.732,1.163,4.775,2.692,6.13,4.589
			c1.355,1.897,2.303,4.149,2.845,6.757c0.339,1.693,0.508,4.657,0.508,8.89v33.173h-9.144v-32.818c0-3.725-0.356-6.508-1.067-8.348
			c-0.711-1.851-1.976-3.325-3.793-4.42c-1.806-1.106-3.929-1.66-6.367-1.66c-3.895,0-7.259,1.236-10.092,3.708
			c-2.822,2.472-4.233,7.163-4.233,14.072v29.465H389.363z M482.228,202.285v-6.807c-3.421,5.351-8.45,8.027-15.088,8.027
			c-4.301,0-8.258-1.185-11.871-3.556c-3.601-2.371-6.395-5.678-8.382-9.923c-1.976-4.256-2.963-9.144-2.963-14.665
			c0-5.385,0.897-10.268,2.692-14.648c1.795-4.391,4.487-7.756,8.077-10.092c3.59-2.337,7.603-3.505,12.04-3.505
			c3.251,0,6.147,0.689,8.687,2.066c2.54,1.366,4.606,3.15,6.198,5.351v-26.721h9.093v74.475H482.228z M453.322,175.361
			c0,6.909,1.456,12.074,4.369,15.494c2.913,3.421,6.35,5.131,10.313,5.131c3.996,0,7.389-1.631,10.177-4.894
			c2.8-3.274,4.2-8.264,4.2-14.969c0-7.383-1.422-12.802-4.267-16.256c-2.845-3.454-6.35-5.182-10.516-5.182
			c-4.064,0-7.462,1.66-10.194,4.979C454.683,162.982,453.322,168.215,453.322,175.361z M501.685,175.31
			c0-9.991,2.777-17.391,8.331-22.2c4.64-3.996,10.296-5.995,16.968-5.995c7.417,0,13.479,2.433,18.187,7.298
			c4.708,4.854,7.061,11.566,7.061,20.134c0,6.943-1.044,12.407-3.133,16.392c-2.077,3.974-5.108,7.061-9.093,9.263
			c-3.974,2.201-8.314,3.302-13.022,3.302c-7.552,0-13.66-2.422-18.322-7.265C504.011,191.397,501.685,184.42,501.685,175.31z
			 M511.083,175.31c0,6.909,1.507,12.085,4.521,15.528c3.014,3.432,6.807,5.148,11.379,5.148c4.538,0,8.314-1.727,11.329-5.182
			s4.521-8.721,4.521-15.799c0-6.672-1.518-11.724-4.555-15.156c-3.025-3.443-6.79-5.165-11.295-5.165
			c-4.572,0-8.365,1.71-11.379,5.131C512.59,163.236,511.083,168.401,511.083,175.31z M559.548,175.31
			c0-9.991,2.777-17.391,8.331-22.2c4.64-3.996,10.296-5.995,16.968-5.995c7.417,0,13.479,2.433,18.187,7.298
			c4.708,4.854,7.061,11.566,7.061,20.134c0,6.943-1.044,12.407-3.133,16.392c-2.077,3.974-5.108,7.061-9.093,9.263
			c-3.974,2.201-8.314,3.302-13.022,3.302c-7.552,0-13.66-2.422-18.322-7.265C561.873,191.397,559.548,184.42,559.548,175.31z
			 M568.946,175.31c0,6.909,1.507,12.085,4.521,15.528c3.014,3.432,6.807,5.148,11.38,5.148c4.538,0,8.314-1.727,11.329-5.182
			s4.521-8.721,4.521-15.799c0-6.672-1.518-11.724-4.555-15.156c-3.026-3.443-6.79-5.165-11.295-5.165
			c-4.572,0-8.365,1.71-11.38,5.131C570.453,163.236,568.946,168.401,568.946,175.31z M620.712,202.285v-53.951h8.23v8.179
			c2.1-3.827,4.036-6.35,5.808-7.569c1.784-1.219,3.742-1.829,5.876-1.829c3.082,0,6.215,0.982,9.398,2.946l-3.15,8.484
			c-2.235-1.321-4.47-1.981-6.706-1.981c-1.998,0-3.793,0.604-5.385,1.812c-1.592,1.197-2.726,2.862-3.404,4.995
			c-1.016,3.251-1.524,6.807-1.524,10.668v28.245H620.712z"/>
		<path fill="#010101" d="M353.447,326.918l28.601-74.475h10.617l30.481,74.475h-11.227l-8.687-22.556h-31.141l-8.179,22.556
			H353.447z M374.936,296.335h25.248l-7.773-20.625c-2.371-6.265-4.132-11.413-5.283-15.444c-0.948,4.775-2.286,9.517-4.013,14.224
			L374.936,296.335z M429.903,262.959v-10.516h9.144v10.516H429.903z M429.903,326.918v-53.951h9.144v53.951H429.903z
			 M452.865,326.918v-53.951h8.23v8.179c2.1-3.827,4.036-6.35,5.808-7.569c1.784-1.219,3.742-1.829,5.876-1.829
			c3.082,0,6.215,0.982,9.398,2.946l-3.15,8.484c-2.235-1.321-4.471-1.981-6.706-1.981c-1.998,0-3.793,0.604-5.385,1.812
			c-1.592,1.197-2.726,2.862-3.404,4.995c-1.016,3.251-1.524,6.807-1.524,10.668v28.245H452.865z"/>
	</g>
</g>
<g id="3">
	<g>
		<path fill="#FFFFFF" stroke="#FFFFFF" stroke-width="4" stroke-miterlimit="10" d="M272.989,167.969h-39.721
			c-7.359,0-13.346-5.808-13.346-12.948c0-7.04,5.822-12.788,13.039-12.946c2.571-8.65,10.692-14.623,20.033-14.623
			c7.744,0,14.717,4.073,18.374,10.677c0.58-0.062,1.106-0.092,1.618-0.092c8.506,0,15.426,6.712,15.426,14.963
			C288.417,161.254,281.495,167.969,272.989,167.969z M233.268,144.082c-6.217,0-11.274,4.907-11.274,10.938
			c0,6.031,5.057,10.936,11.274,10.936h39.721c7.365,0,13.354-5.814,13.354-12.958c0-7.143-5.991-12.952-13.354-12.952
			c-0.617,0-1.27,0.052-2.053,0.167c-0.443,0.064-0.883-0.159-1.081-0.549c-3.199-6.29-9.66-10.2-16.86-10.2
			c-8.668,0-16.168,5.707-18.239,13.879c-0.116,0.458-0.57,0.758-1.032,0.764L233.268,144.082z"/>
		<path fill="#FFFFFF" stroke="#FFFFFF" stroke-width="4" stroke-miterlimit="10" d="M272.989,167.969
			c-0.572,0-1.036-0.45-1.036-1.005s0.464-1.005,1.036-1.005c7.365,0,13.354-5.814,13.354-12.958
			c0-7.143-5.991-12.952-13.354-12.952c-3.858,0-7.527,1.618-10.064,4.439c-0.375,0.418-1.03,0.462-1.461,0.096
			c-0.431-0.364-0.474-0.999-0.099-1.417c2.929-3.259,7.166-5.126,11.624-5.126c8.506,0,15.426,6.712,15.426,14.963
			C288.417,161.254,281.495,167.969,272.989,167.969z"/>
	</g>
</g>
<g id="5">
	<g>
		<path fill="#FFFFFF" stroke="#FFFFFF" stroke-width="4" stroke-miterlimit="10" d="M205.096,106.486h-27.071
			c-5.015,0-9.096-3.958-9.096-8.825c0-4.798,3.968-8.715,8.887-8.823c1.752-5.895,7.287-9.966,13.653-9.966
			c5.278,0,10.03,2.776,12.522,7.277c0.395-0.042,0.754-0.063,1.103-0.063c5.797,0,10.513,4.575,10.513,10.198
			C215.611,101.91,210.894,106.486,205.096,106.486z M178.025,90.207c-4.237,0-7.684,3.344-7.684,7.455s3.447,7.453,7.684,7.453
			h27.071c5.019,0,9.101-3.962,9.101-8.832c0-4.868-4.083-8.827-9.101-8.827c-0.421,0-0.866,0.036-1.399,0.114
			c-0.302,0.044-0.601-0.108-0.737-0.374c-2.18-4.287-6.584-6.952-11.49-6.952c-5.908,0-11.019,3.89-12.431,9.459
			c-0.079,0.312-0.388,0.517-0.703,0.521L178.025,90.207z"/>
		<path fill="#FFFFFF" stroke="#FFFFFF" stroke-width="4" stroke-miterlimit="10" d="M205.096,106.486
			c-0.39,0-0.706-0.307-0.706-0.685c0-0.378,0.316-0.685,0.706-0.685c5.019,0,9.101-3.962,9.101-8.832
			c0-4.868-4.083-8.827-9.101-8.827c-2.629,0-5.13,1.103-6.859,3.025c-0.256,0.285-0.702,0.315-0.995,0.066
			c-0.294-0.248-0.323-0.681-0.068-0.966c1.996-2.221,4.884-3.494,7.922-3.494c5.797,0,10.513,4.575,10.513,10.198
			C215.611,101.91,210.894,106.486,205.096,106.486z"/>
	</g>
</g>
<g id="6">
	<g>
		<path fill="#FFFFFF" stroke="#FFFFFF" stroke-width="4" stroke-miterlimit="10" d="M181.352,131.73h-12.519
			c-2.319,0-4.206-1.831-4.206-4.081c0-2.219,1.835-4.03,4.11-4.08c0.81-2.726,3.37-4.609,6.314-4.609
			c2.441,0,4.639,1.284,5.791,3.365c0.183-0.02,0.349-0.029,0.51-0.029c2.681,0,4.862,2.116,4.862,4.716
			C186.215,129.614,184.033,131.73,181.352,131.73z M168.833,124.202c-1.96,0-3.553,1.547-3.553,3.447
			c0,1.901,1.594,3.447,3.553,3.447h12.519c2.321,0,4.209-1.832,4.209-4.084c0-2.251-1.888-4.082-4.209-4.082
			c-0.195,0-0.4,0.016-0.647,0.053c-0.14,0.02-0.278-0.05-0.341-0.173c-1.008-1.983-3.045-3.215-5.314-3.215
			c-2.732,0-5.096,1.799-5.749,4.374c-0.037,0.144-0.18,0.239-0.325,0.241L168.833,124.202z"/>
		<path fill="#FFFFFF" stroke="#FFFFFF" stroke-width="4" stroke-miterlimit="10" d="M181.352,131.73
			c-0.18,0-0.326-0.142-0.326-0.317c0-0.175,0.146-0.317,0.326-0.317c2.321,0,4.209-1.832,4.209-4.084
			c0-2.251-1.888-4.082-4.209-4.082c-1.216,0-2.372,0.51-3.172,1.399c-0.118,0.132-0.325,0.146-0.46,0.03
			c-0.136-0.115-0.15-0.315-0.031-0.447c0.923-1.027,2.259-1.616,3.664-1.616c2.681,0,4.862,2.116,4.862,4.716
			C186.215,129.614,184.033,131.73,181.352,131.73z"/>
	</g>
</g>
<g id="4">
	<g>
		<path fill="#FFFFFF" stroke="#FFFFFF" stroke-width="4" stroke-miterlimit="10" d="M136.889,149.939h-34.854
			c-6.457,0-11.711-5.096-11.711-11.362c0-6.177,5.108-11.221,11.442-11.36c2.256-7.59,9.382-12.831,17.579-12.831
			c6.795,0,12.914,3.574,16.123,9.368c0.509-0.055,0.971-0.081,1.42-0.081c7.464,0,13.536,5.89,13.536,13.129
			C150.426,144.047,144.353,149.939,136.889,149.939z M102.035,128.979c-5.455,0-9.893,4.306-9.893,9.598
			c0,5.292,4.437,9.596,9.893,9.596h34.854c6.463,0,11.718-5.101,11.718-11.371c0-6.267-5.257-11.365-11.718-11.365
			c-0.542,0-1.114,0.046-1.801,0.146c-0.389,0.056-0.774-0.139-0.949-0.482c-2.807-5.52-8.477-8.95-14.794-8.95
			c-7.606,0-14.187,5.008-16.004,12.179c-0.102,0.402-0.5,0.665-0.905,0.67L102.035,128.979z"/>
		<path fill="#FFFFFF" stroke="#FFFFFF" stroke-width="4" stroke-miterlimit="10" d="M136.889,149.939
			c-0.502,0-0.909-0.395-0.909-0.882c0-0.487,0.407-0.882,0.909-0.882c6.463,0,11.718-5.101,11.718-11.371
			c0-6.267-5.257-11.365-11.718-11.365c-3.385,0-6.604,1.42-8.831,3.895c-0.329,0.367-0.903,0.406-1.282,0.085
			c-0.378-0.319-0.416-0.877-0.087-1.244c2.57-2.859,6.288-4.498,10.2-4.498c7.464,0,13.536,5.89,13.536,13.129
			C150.426,144.047,144.353,149.939,136.889,149.939z"/>
	</g>
</g>
</svg>
